<svg xmlns="http://www.w3.org/2000/svg" version="1.1" xmlns:xlink="http://www.w3.org/1999/xlink" xmlns:svgjs="http://svgjs.dev/svgjs" width="1500" height="1500" viewBox="0 0 1500 1500"><rect width="1500" height="1500" fill="#ffffff"></rect><g transform="matrix(0.6666666666666666,0,0,0.6666666666666666,249.39393939393938,647.1836864287347)"><svg viewBox="0 0 396 82" data-background-color="#020617" preserveAspectRatio="xMidYMid meet" height="310" width="1500" xmlns="http://www.w3.org/2000/svg" xmlns:xlink="http://www.w3.org/1999/xlink"><g id="tight-bounds" transform="matrix(1,0,0,1,0.2400000000000091,-0.2051400991431933)"><svg viewBox="0 0 395.52 82.41028019828642" height="82.41028019828642" width="395.52"><g><svg viewBox="0 0 535.463078935589 111.56872565462947" height="82.41028019828642" width="395.52"><g></g><g transform="matrix(1,0,0,1,139.94307893558897,0.2775341434194729)"><svg viewBox="0 0 395.52 111.01365736779053" height="111.01365736779053" width="395.52"><g id="textblocktransform"><svg viewBox="0 0 395.52 111.01365736779053" height="111.01365736779053" width="395.52" id="textblock"><g><svg viewBox="0 0 395.52 111.01365736779053" height="111.01365736779053" width="395.52"><g transform="matrix(1,0,0,1,0,0)"><svg width="395.52" viewBox="2.25 -37 294.40000000000003 78.6" height="111.01365736779053" data-palette-color="url(#8579fd18-444c-4ae8-8697-9af10528081f)"><svg></svg><svg></svg><g class="wordmark-text-0" data-fill-palette-color="primary" id="text-0"></g></svg></g></svg></g></svg></g></svg></g><g transform="matrix(1,0,0,1,0,0.2775341434194729)"><svg viewBox="0 0 111.01365736779053 111.01365736779053" height="111.01365736779053" width="111.01365736779053"><g><svg xmlns="http://www.w3.org/2000/svg" xmlns:xlink="http://www.w3.org/1999/xlink" version="1.1" x="0" y="0" viewBox="0 0 58 58" enable-background="new 0 0 58 58" xml:space="preserve" height="111.01365736779053" width="111.01365736779053" class="icon-icon-0" data-fill-palette-color="accent" id="icon-0"></svg></g></svg></g></svg></g><defs></defs><mask id="077bd4ce-2903-4f36-b393-ce4d5071379c"><g id="SvgjsG1383"><svg viewBox="0 0 395.52 82.41028019828642" height="82.41028019828642" width="395.52"><g><svg viewBox="0 0 535.463078935589 111.56872565462947" height="82.41028019828642" width="395.52"><g><rect width="4.639395062510081" height="111.56872565462947" x="123.15867062043472" y="0" fill="white" opacity="1" stroke-width="0" stroke="transparent" fill-opacity="1" class="rect-qz-0" rx="1%" id="SvgjsRect1382" data-palette-color="url(#8579fd18-444c-4ae8-8697-9af10528081f)"></rect></g><g transform="matrix(1,0,0,1,139.94307893558897,0.2775341434194729)"><svg viewBox="0 0 395.52 111.01365736779053" height="111.01365736779053" width="395.52"><g id="SvgjsG1381"><svg viewBox="0 0 395.52 111.01365736779053" height="111.01365736779053" width="395.52" id="SvgjsSvg1380"><g><svg viewBox="0 0 395.52 111.01365736779053" height="111.01365736779053" width="395.52"><g transform="matrix(1,0,0,1,0,0)"><svg width="395.52" viewBox="2.25 -37 294.40000000000003 78.6" height="111.01365736779053" data-palette-color="url(#8579fd18-444c-4ae8-8697-9af10528081f)"><svg></svg><svg></svg><g class="wordmark-text-0" data-fill-palette-color="primary" id="SvgjsG1379"><path d="M26 0h-21.5v-34.9h21.5v3.65h-17.3v11.75h16.7v3.65h-16.7v12.2h17.3zM37.65 0h-4.6l9.6-13.1-9.35-12.7h4.8l3.9 5.45 3.1 4.3h0.2l3-4.3 3.85-5.45h4.6l-9.45 12.65 9.7 13.15h-4.8l-4.35-6.05-2.95-4.1h-0.2l-2.85 4.1zM75.9 0.6v0c-1.867 0-3.527-0.327-4.98-0.98-1.447-0.647-2.67-1.553-3.67-2.72-1-1.167-1.76-2.583-2.28-4.25-0.513-1.667-0.77-3.517-0.77-5.55v0c0-2.033 0.267-3.883 0.8-5.55 0.533-1.667 1.3-3.093 2.3-4.28 1-1.18 2.217-2.087 3.65-2.72 1.433-0.633 3.067-0.95 4.9-0.95v0c2.5 0 4.533 0.55 6.1 1.65 1.567 1.1 2.717 2.533 3.45 4.3v0l-3.2 1.7c-0.467-1.333-1.24-2.367-2.32-3.1-1.087-0.733-2.43-1.1-4.03-1.1v0c-1.167 0-2.21 0.19-3.13 0.57-0.913 0.387-1.687 0.93-2.32 1.63-0.633 0.7-1.11 1.533-1.43 2.5-0.313 0.967-0.47 2.017-0.47 3.15v0 4.4c0 1.133 0.157 2.183 0.47 3.15 0.32 0.967 0.797 1.8 1.43 2.5 0.633 0.7 1.417 1.24 2.35 1.62 0.933 0.387 2 0.58 3.2 0.58v0c1.733 0 3.167-0.4 4.3-1.2 1.133-0.8 2.033-1.9 2.7-3.3v0l2.85 1.95c-0.767 1.733-1.96 3.167-3.58 4.3-1.613 1.133-3.72 1.7-6.32 1.7zM105.45 0.6v0c-1.867 0-3.543-0.317-5.03-0.95-1.48-0.633-2.743-1.543-3.79-2.73-1.053-1.18-1.863-2.597-2.43-4.25-0.567-1.647-0.85-3.487-0.85-5.52v0c0-2.067 0.29-3.933 0.87-5.6 0.587-1.667 1.397-3.093 2.43-4.28 1.033-1.18 2.277-2.087 3.73-2.72 1.447-0.633 3.053-0.95 4.82-0.95v0c1.733 0 3.307 0.317 4.72 0.95 1.42 0.633 2.63 1.507 3.63 2.62 1 1.12 1.767 2.447 2.3 3.98 0.533 1.533 0.8 3.217 0.8 5.05v0 1.9h-19.1v1.2c0 1.133 0.183 2.183 0.55 3.15 0.367 0.967 0.89 1.8 1.57 2.5 0.687 0.7 1.52 1.24 2.5 1.62 0.987 0.387 2.08 0.58 3.28 0.58v0c1.733 0 3.233-0.4 4.5-1.2 1.267-0.8 2.233-1.9 2.9-3.3v0l2.95 2c-0.767 1.733-2.043 3.16-3.83 4.28-1.78 1.113-3.953 1.67-6.52 1.67zM105.2-23.1v0c-1.1 0-2.117 0.2-3.05 0.6-0.933 0.4-1.743 0.95-2.43 1.65-0.68 0.7-1.21 1.523-1.59 2.47-0.387 0.953-0.58 1.997-0.58 3.13v0 0.35h14.8v-0.55c0-1.133-0.173-2.167-0.52-3.1-0.353-0.933-0.837-1.743-1.45-2.43-0.62-0.68-1.37-1.203-2.25-1.57-0.887-0.367-1.863-0.55-2.93-0.55zM124 0v-3.4h9v-30.2h-9v-3.4h13v33.6h9v3.4zM154 0v-3.4h9v-30.2h-9v-3.4h13v33.6h9v3.4zM195.45 0.6v0c-1.867 0-3.54-0.317-5.02-0.95-1.487-0.633-2.753-1.543-3.8-2.73-1.053-1.18-1.863-2.597-2.43-4.25-0.567-1.647-0.85-3.487-0.85-5.52v0c0-2.067 0.29-3.933 0.87-5.6 0.587-1.667 1.397-3.093 2.43-4.28 1.033-1.18 2.277-2.087 3.73-2.72 1.447-0.633 3.053-0.95 4.82-0.95v0c1.733 0 3.31 0.317 4.73 0.95 1.413 0.633 2.62 1.507 3.62 2.62 1 1.12 1.767 2.447 2.3 3.98 0.533 1.533 0.8 3.217 0.8 5.05v0 1.9h-19.1v1.2c0 1.133 0.183 2.183 0.55 3.15 0.367 0.967 0.893 1.8 1.58 2.5 0.68 0.7 1.513 1.24 2.5 1.62 0.98 0.387 2.07 0.58 3.27 0.58v0c1.733 0 3.233-0.4 4.5-1.2 1.267-0.8 2.233-1.9 2.9-3.3v0l2.95 2c-0.767 1.733-2.043 3.16-3.83 4.28-1.78 1.113-3.953 1.67-6.52 1.67zM195.2-23.1v0c-1.1 0-2.117 0.2-3.05 0.6-0.933 0.4-1.743 0.95-2.43 1.65-0.68 0.7-1.21 1.523-1.59 2.47-0.387 0.953-0.58 1.997-0.58 3.13v0 0.35h14.8v-0.55c0-1.133-0.177-2.167-0.53-3.1-0.347-0.933-0.827-1.743-1.44-2.43-0.62-0.68-1.37-1.203-2.25-1.57-0.887-0.367-1.863-0.55-2.93-0.55zM218.9 0h-4v-25.8h4v4.2h0.2c0.267-0.633 0.6-1.243 1-1.83 0.4-0.58 0.89-1.087 1.47-1.52 0.587-0.433 1.28-0.783 2.08-1.05 0.8-0.267 1.733-0.4 2.8-0.4v0c2.7 0 4.867 0.857 6.5 2.57 1.633 1.72 2.45 4.147 2.45 7.28v0 16.55h-4v-15.85c0-2.367-0.517-4.127-1.55-5.28-1.033-1.147-2.55-1.72-4.55-1.72v0c-0.8 0-1.583 0.1-2.35 0.3-0.767 0.2-1.45 0.5-2.05 0.9-0.6 0.4-1.083 0.917-1.45 1.55-0.367 0.633-0.55 1.367-0.55 2.2v0zM255.9 0.6v0c-1.867 0-3.523-0.327-4.97-0.98-1.453-0.647-2.68-1.553-3.68-2.72-1-1.167-1.76-2.583-2.28-4.25-0.513-1.667-0.77-3.517-0.77-5.55v0c0-2.033 0.267-3.883 0.8-5.55 0.533-1.667 1.3-3.093 2.3-4.28 1-1.18 2.217-2.087 3.65-2.72 1.433-0.633 3.067-0.95 4.9-0.95v0c2.5 0 4.533 0.55 6.1 1.65 1.567 1.1 2.717 2.533 3.45 4.3v0l-3.2 1.7c-0.467-1.333-1.24-2.367-2.32-3.1-1.087-0.733-2.43-1.1-4.03-1.1v0c-1.167 0-2.21 0.19-3.13 0.57-0.913 0.387-1.687 0.93-2.32 1.63-0.633 0.7-1.11 1.533-1.43 2.5-0.313 0.967-0.47 2.017-0.47 3.15v0 4.4c0 1.133 0.157 2.183 0.47 3.15 0.32 0.967 0.797 1.8 1.43 2.5 0.633 0.7 1.417 1.24 2.35 1.62 0.933 0.387 2 0.58 3.2 0.58v0c1.733 0 3.167-0.4 4.3-1.2 1.133-0.8 2.033-1.9 2.7-3.3v0l2.85 1.95c-0.767 1.733-1.957 3.167-3.57 4.3-1.62 1.133-3.73 1.7-6.33 1.7zM285.45 0.6v0c-1.867 0-3.54-0.317-5.02-0.95-1.487-0.633-2.753-1.543-3.8-2.73-1.053-1.18-1.863-2.597-2.43-4.25-0.567-1.647-0.85-3.487-0.85-5.52v0c0-2.067 0.293-3.933 0.88-5.6 0.58-1.667 1.387-3.093 2.42-4.28 1.033-1.18 2.277-2.087 3.73-2.72 1.447-0.633 3.053-0.95 4.82-0.95v0c1.733 0 3.31 0.317 4.73 0.95 1.413 0.633 2.62 1.507 3.62 2.62 1 1.12 1.767 2.447 2.3 3.98 0.533 1.533 0.8 3.217 0.8 5.05v0 1.9h-19.1v1.2c0 1.133 0.183 2.183 0.55 3.15 0.367 0.967 0.893 1.8 1.58 2.5 0.68 0.7 1.513 1.24 2.5 1.62 0.98 0.387 2.07 0.58 3.27 0.58v0c1.733 0 3.233-0.4 4.5-1.2 1.267-0.8 2.233-1.9 2.9-3.3v0l2.95 2c-0.767 1.733-2.04 3.16-3.82 4.28-1.787 1.113-3.963 1.67-6.53 1.67zM285.2-23.1v0c-1.1 0-2.117 0.2-3.05 0.6-0.933 0.4-1.74 0.95-2.42 1.65-0.687 0.7-1.22 1.523-1.6 2.47-0.387 0.953-0.58 1.997-0.58 3.13v0 0.35h14.8v-0.55c0-1.133-0.177-2.167-0.53-3.1-0.347-0.933-0.827-1.743-1.44-2.43-0.62-0.68-1.37-1.203-2.25-1.57-0.887-0.367-1.863-0.55-2.93-0.55z" fill="white" fill-rule="nonzero" stroke="none" stroke-width="1" stroke-linecap="butt" stroke-linejoin="miter" stroke-miterlimit="10" stroke-dasharray="" stroke-dashoffset="0" font-family="none" font-weight="none" font-size="none" text-anchor="none" style="mix-blend-mode: normal" opacity="1"></path><path transform="translate(0,41)" d="M14.9 0.6v0c-3.133 0-5.7-0.577-7.7-1.73-2-1.147-3.65-2.62-4.95-4.42v0l3.05-2.5c1.367 1.7 2.81 2.967 4.33 3.8 1.513 0.833 3.32 1.25 5.42 1.25v0c2.533 0 4.467-0.583 5.8-1.75 1.333-1.167 2-2.8 2-4.9v0c0-1.7-0.483-3.027-1.45-3.98-0.967-0.947-2.65-1.62-5.05-2.02v0l-3.9-0.65c-1.7-0.3-3.123-0.75-4.27-1.35-1.153-0.6-2.08-1.327-2.78-2.18-0.7-0.847-1.2-1.78-1.5-2.8-0.3-1.013-0.45-2.07-0.45-3.17v0c0-3.2 1.05-5.617 3.15-7.25 2.1-1.633 4.933-2.45 8.5-2.45v0c2.8 0 5.16 0.467 7.08 1.4 1.913 0.933 3.453 2.25 4.62 3.95v0l-2.95 2.55c-0.967-1.267-2.133-2.3-3.5-3.1-1.367-0.8-3.133-1.2-5.3-1.2v0c-2.367 0-4.183 0.5-5.45 1.5-1.267 1-1.9 2.5-1.9 4.5v0c0 1.567 0.477 2.84 1.43 3.82 0.947 0.987 2.653 1.697 5.12 2.13v0l3.75 0.65c1.7 0.3 3.133 0.75 4.3 1.35 1.167 0.6 2.11 1.317 2.83 2.15 0.713 0.833 1.22 1.767 1.52 2.8 0.3 1.033 0.45 2.117 0.45 3.25v0c0 3.233-1.057 5.767-3.17 7.6-2.12 1.833-5.13 2.75-9.03 2.75zM45 0.6v0c-1.8 0-3.423-0.317-4.87-0.95-1.453-0.633-2.69-1.543-3.71-2.73-1.013-1.18-1.787-2.597-2.32-4.25-0.533-1.647-0.8-3.503-0.8-5.57v0c0-2.033 0.267-3.883 0.8-5.55 0.533-1.667 1.307-3.093 2.32-4.28 1.02-1.18 2.257-2.087 3.71-2.72 1.447-0.633 3.07-0.95 4.87-0.95v0c1.8 0 3.427 0.317 4.88 0.95 1.447 0.633 2.68 1.54 3.7 2.72 1.013 1.187 1.787 2.613 2.32 4.28 0.533 1.667 0.8 3.517 0.8 5.55v0c0 2.067-0.267 3.923-0.8 5.57-0.533 1.653-1.307 3.07-2.32 4.25-1.02 1.187-2.253 2.097-3.7 2.73-1.453 0.633-3.08 0.95-4.88 0.95zM45-2.85v0c2.233 0 4.033-0.667 5.4-2 1.367-1.333 2.05-3.4 2.05-6.2v0-3.7c0-2.8-0.683-4.867-2.05-6.2-1.367-1.333-3.167-2-5.4-2v0c-2.233 0-4.033 0.667-5.4 2-1.367 1.333-2.05 3.4-2.05 6.2v0 3.7c0 2.8 0.683 4.867 2.05 6.2 1.367 1.333 3.167 2 5.4 2zM64 0v-3.4h9v-30.2h-9v-3.4h13v33.6h9v3.4zM111.1 0v-4.2h-0.2c-0.267 0.633-0.6 1.24-1 1.82-0.4 0.587-0.893 1.097-1.48 1.53-0.58 0.433-1.27 0.783-2.07 1.05-0.8 0.267-1.733 0.4-2.8 0.4v0c-2.7 0-4.867-0.86-6.5-2.58-1.633-1.713-2.45-4.137-2.45-7.27v0-16.55h4v15.85c0 2.367 0.517 4.127 1.55 5.28 1.033 1.147 2.55 1.72 4.55 1.72v0c0.8 0 1.583-0.1 2.35-0.3 0.767-0.2 1.45-0.5 2.05-0.9 0.6-0.4 1.083-0.91 1.45-1.53 0.367-0.613 0.55-1.353 0.55-2.22v0-17.9h4v25.8zM146.3 0h-10.05c-1.967 0-3.407-0.55-4.32-1.65-0.92-1.1-1.38-2.517-1.38-4.25v0-16.5h-8.6v-3.4h6.4c0.867 0 1.477-0.177 1.83-0.53 0.347-0.347 0.52-0.953 0.52-1.82v0-6.75h3.85v9.1h11.75v3.4h-11.75v19h11.75zM166.6-31.5v0c-1.167 0-1.983-0.243-2.45-0.73-0.467-0.48-0.7-1.087-0.7-1.82v0-0.8c0-0.733 0.233-1.343 0.7-1.83 0.467-0.48 1.283-0.72 2.45-0.72v0c1.167 0 1.983 0.24 2.45 0.72 0.467 0.487 0.7 1.097 0.7 1.83v0 0.8c0 0.733-0.233 1.34-0.7 1.82-0.467 0.487-1.283 0.73-2.45 0.73zM155.3 0v-3.4h9.3v-19h-9.3v-3.4h13.3v22.4h8.7v3.4zM195 0.6v0c-1.8 0-3.423-0.317-4.87-0.95-1.453-0.633-2.687-1.543-3.7-2.73-1.02-1.18-1.797-2.597-2.33-4.25-0.533-1.647-0.8-3.503-0.8-5.57v0c0-2.033 0.267-3.883 0.8-5.55 0.533-1.667 1.31-3.093 2.33-4.28 1.013-1.18 2.247-2.087 3.7-2.72 1.447-0.633 3.07-0.95 4.87-0.95v0c1.8 0 3.427 0.317 4.88 0.95 1.447 0.633 2.677 1.54 3.69 2.72 1.02 1.187 1.797 2.613 2.33 4.28 0.533 1.667 0.8 3.517 0.8 5.55v0c0 2.067-0.267 3.923-0.8 5.57-0.533 1.653-1.31 3.07-2.33 4.25-1.013 1.187-2.243 2.097-3.69 2.73-1.453 0.633-3.08 0.95-4.88 0.95zM195-2.85v0c2.233 0 4.033-0.667 5.4-2 1.367-1.333 2.05-3.4 2.05-6.2v0-3.7c0-2.8-0.683-4.867-2.05-6.2-1.367-1.333-3.167-2-5.4-2v0c-2.233 0-4.033 0.667-5.4 2-1.367 1.333-2.05 3.4-2.05 6.2v0 3.7c0 2.8 0.683 4.867 2.05 6.2 1.367 1.333 3.167 2 5.4 2zM218.9 0h-4v-25.8h4v4.2h0.2c0.267-0.633 0.6-1.243 1-1.83 0.4-0.58 0.89-1.087 1.47-1.52 0.587-0.433 1.28-0.783 2.08-1.05 0.8-0.267 1.733-0.4 2.8-0.4v0c2.7 0 4.867 0.857 6.5 2.57 1.633 1.72 2.45 4.147 2.45 7.28v0 16.55h-4v-15.85c0-2.367-0.517-4.127-1.55-5.28-1.033-1.147-2.55-1.72-4.55-1.72v0c-0.8 0-1.583 0.1-2.35 0.3-0.767 0.2-1.45 0.5-2.05 0.9-0.6 0.4-1.083 0.917-1.45 1.55-0.367 0.633-0.55 1.367-0.55 2.2v0zM255.3 0.6v0c-2.7 0-5.027-0.46-6.98-1.38-1.947-0.913-3.603-2.137-4.97-3.67v0l2.7-2.35c1.233 1.3 2.583 2.3 4.05 3 1.467 0.7 3.233 1.05 5.3 1.05v0c2 0 3.64-0.36 4.92-1.08 1.287-0.713 1.93-1.837 1.93-3.37v0c0-0.667-0.123-1.227-0.37-1.68-0.253-0.447-0.597-0.803-1.03-1.07-0.433-0.267-0.917-0.477-1.45-0.63-0.533-0.147-1.1-0.27-1.7-0.37v0l-4.05-0.6c-0.9-0.133-1.877-0.317-2.93-0.55-1.047-0.233-2.003-0.61-2.87-1.13-0.867-0.513-1.59-1.203-2.17-2.07-0.587-0.867-0.88-2-0.88-3.4v0c0-1.3 0.257-2.427 0.77-3.38 0.52-0.947 1.247-1.747 2.18-2.4 0.933-0.647 2.033-1.13 3.3-1.45 1.267-0.313 2.65-0.47 4.15-0.47v0c2.333 0 4.357 0.367 6.07 1.1 1.72 0.733 3.197 1.75 4.43 3.05v0l-2.6 2.45c-0.3-0.367-0.673-0.743-1.12-1.13-0.453-0.38-1.007-0.73-1.66-1.05-0.647-0.313-1.403-0.57-2.27-0.77-0.867-0.2-1.867-0.3-3-0.3v0c-2.033 0-3.59 0.35-4.67 1.05-1.087 0.7-1.63 1.717-1.63 3.05v0c0 0.667 0.127 1.223 0.38 1.67 0.247 0.453 0.587 0.813 1.02 1.08 0.433 0.267 0.927 0.473 1.48 0.62 0.547 0.153 1.103 0.28 1.67 0.38v0l4.05 0.6c0.933 0.133 1.917 0.317 2.95 0.55 1.033 0.233 1.983 0.607 2.85 1.12 0.867 0.52 1.59 1.213 2.17 2.08 0.587 0.867 0.88 2 0.88 3.4v0c0 2.567-0.99 4.55-2.97 5.95-1.987 1.4-4.63 2.1-7.93 2.1z" fill="white" fill-rule="nonzero" stroke="none" stroke-width="1" stroke-linecap="butt" stroke-linejoin="miter" stroke-miterlimit="10" stroke-dasharray="" stroke-dashoffset="0" font-family="none" font-weight="none" font-size="none" text-anchor="none" style="mix-blend-mode: normal" opacity="1"></path></g></svg></g></svg></g></svg></g></svg></g><g transform="matrix(1,0,0,1,0,0.2775341434194729)"><svg viewBox="0 0 111.01365736779053 111.01365736779053" height="111.01365736779053" width="111.01365736779053"><g><svg xmlns="http://www.w3.org/2000/svg" xmlns:xlink="http://www.w3.org/1999/xlink" version="1.1" x="0" y="0" viewBox="0 0 58 58" enable-background="new 0 0 58 58" xml:space="preserve" height="111.01365736779053" width="111.01365736779053" class="icon-icon-0" data-fill-palette-color="accent" id="SvgjsSvg1378"><g fill="black"><path fill="black" d="M57 26c0.55 0 1-0.45 1-1V1c0-0.55-0.45-1-1-1H33c-0.55 0-1 0.45-1 1v12h-6V1c0-0.55-0.45-1-1-1H1C0.45 0 0 0.45 0 1v24c0 0.55 0.45 1 1 1h12v6H1c-0.55 0-1 0.45-1 1v24c0 0.55 0.45 1 1 1h24c0.55 0 1-0.45 1-1V45h6v12c0 0.55 0.45 1 1 1h24c0.55 0 1-0.45 1-1V33c0-0.55-0.45-1-1-1H45v-6H57zM44 34h12v22H34V44c0-0.55-0.45-1-1-1h-8c-0.55 0-1 0.45-1 1v12H2V34h12c0.55 0 1-0.45 1-1v-8c0-0.55-0.45-1-1-1H2V2h22v12c0 0.55 0.45 1 1 1h8c0.55 0 1-0.45 1-1V2h22v22H44c-0.55 0-1 0.45-1 1v8C43 33.55 43.45 34 44 34z"></path><path fill="black" d="M53 22c0.55 0 1-0.45 1-1V5c0-0.55-0.45-1-1-1H37c-0.55 0-1 0.45-1 1v12H22V5c0-0.55-0.45-1-1-1H5C4.45 4 4 4.45 4 5v16c0 0.55 0.45 1 1 1h12v14H5c-0.55 0-1 0.45-1 1v16c0 0.55 0.45 1 1 1h16c0.55 0 1-0.45 1-1V41h14v12c0 0.55 0.45 1 1 1h16c0.55 0 1-0.45 1-1V37c0-0.55-0.45-1-1-1H41V22H53zM6 20V6h14v12c0 0.55 0.45 1 1 1h7v9h-9v-7c0-0.55-0.45-1-1-1H6zM21 39c-0.55 0-1 0.45-1 1v12H6V38h12c0.55 0 1-0.45 1-1v-7h9v9H21zM52 38v14H38V40c0-0.55-0.45-1-1-1h-7v-9h9v7c0 0.55 0.45 1 1 1H52zM40 20c-0.55 0-1 0.45-1 1v7h-9v-9h7c0.55 0 1-0.45 1-1V6h14v14H40z"></path></g></svg></g></svg></g></svg></g><defs><mask></mask></defs></svg><rect width="395.52" height="82.41028019828642" fill="black" stroke="none" visibility="hidden"></rect></g></mask><linearGradient x1="0" x2="1" y1="0.578" y2="0.595" id="8579fd18-444c-4ae8-8697-9af10528081f"><stop stop-color="#6ee2f5" offset="0"></stop><stop stop-color="#6454f0" offset="1"></stop></linearGradient><rect width="395.52" height="82.41028019828642" fill="#000000" mask="url(#077bd4ce-2903-4f36-b393-ce4d5071379c)" data-fill-palette-color="primary"></rect><mask id="31bc6099-a0b4-48b3-b397-960f017ad196"><g id="SvgjsG1394"><svg viewBox="0 0 395.52 82.41028019828642" height="82.41028019828642" width="395.52"><g><svg viewBox="0 0 535.463078935589 111.56872565462947" height="82.41028019828642" width="395.52"><g></g><g transform="matrix(1,0,0,1,139.94307893558897,0.2775341434194729)"><svg viewBox="0 0 395.52 111.01365736779053" height="111.01365736779053" width="395.52"><g id="SvgjsG1393"><svg viewBox="0 0 395.52 111.01365736779053" height="111.01365736779053" width="395.52" id="SvgjsSvg1392"><g><svg viewBox="0 0 395.52 111.01365736779053" height="111.01365736779053" width="395.52"><g transform="matrix(1,0,0,1,0,0)"><svg width="395.52" viewBox="2.25 -37 294.40000000000003 78.6" height="111.01365736779053" data-palette-color="url(#8579fd18-444c-4ae8-8697-9af10528081f)"><svg></svg><svg></svg><g class="wordmark-text-0" data-fill-palette-color="primary" id="SvgjsG1391"></g></svg></g></svg></g></svg></g></svg></g><g transform="matrix(1,0,0,1,0,0.2775341434194729)"><svg viewBox="0 0 111.01365736779053 111.01365736779053" height="111.01365736779053" width="111.01365736779053"><g><svg xmlns="http://www.w3.org/2000/svg" xmlns:xlink="http://www.w3.org/1999/xlink" version="1.1" x="0" y="0" viewBox="0 0 58 58" enable-background="new 0 0 58 58" xml:space="preserve" height="111.01365736779053" width="111.01365736779053" class="icon-icon-0" data-fill-palette-color="accent" id="SvgjsSvg1390"><g fill="white"><path fill="white" d="M57 26c0.55 0 1-0.45 1-1V1c0-0.55-0.45-1-1-1H33c-0.55 0-1 0.45-1 1v12h-6V1c0-0.55-0.45-1-1-1H1C0.45 0 0 0.45 0 1v24c0 0.55 0.45 1 1 1h12v6H1c-0.55 0-1 0.45-1 1v24c0 0.55 0.45 1 1 1h24c0.55 0 1-0.45 1-1V45h6v12c0 0.55 0.45 1 1 1h24c0.55 0 1-0.45 1-1V33c0-0.55-0.45-1-1-1H45v-6H57zM44 34h12v22H34V44c0-0.55-0.45-1-1-1h-8c-0.55 0-1 0.45-1 1v12H2V34h12c0.55 0 1-0.45 1-1v-8c0-0.55-0.45-1-1-1H2V2h22v12c0 0.55 0.45 1 1 1h8c0.55 0 1-0.45 1-1V2h22v22H44c-0.55 0-1 0.45-1 1v8C43 33.55 43.45 34 44 34z"></path><path fill="white" d="M53 22c0.55 0 1-0.45 1-1V5c0-0.55-0.45-1-1-1H37c-0.55 0-1 0.45-1 1v12H22V5c0-0.55-0.45-1-1-1H5C4.45 4 4 4.45 4 5v16c0 0.55 0.45 1 1 1h12v14H5c-0.55 0-1 0.45-1 1v16c0 0.55 0.45 1 1 1h16c0.55 0 1-0.45 1-1V41h14v12c0 0.55 0.45 1 1 1h16c0.55 0 1-0.45 1-1V37c0-0.55-0.45-1-1-1H41V22H53zM6 20V6h14v12c0 0.55 0.45 1 1 1h7v9h-9v-7c0-0.55-0.45-1-1-1H6zM21 39c-0.55 0-1 0.45-1 1v12H6V38h12c0.55 0 1-0.45 1-1v-7h9v9H21zM52 38v14H38V40c0-0.55-0.45-1-1-1h-7v-9h9v7c0 0.55 0.45 1 1 1H52zM40 20c-0.55 0-1 0.45-1 1v7h-9v-9h7c0.55 0 1-0.45 1-1V6h14v14H40z"></path></g></svg></g></svg></g></svg></g><defs><mask></mask></defs><mask><g id="SvgjsG1389"><svg viewBox="0 0 395.52 82.41028019828642" height="82.41028019828642" width="395.52"><g><svg viewBox="0 0 535.463078935589 111.56872565462947" height="82.41028019828642" width="395.52"><g><rect width="4.639395062510081" height="111.56872565462947" x="123.15867062043472" y="0" fill="black" opacity="1" stroke-width="0" stroke="transparent" fill-opacity="1" class="rect-qz-0" rx="1%" id="SvgjsRect1388" data-palette-color="url(#8579fd18-444c-4ae8-8697-9af10528081f)"></rect></g><g transform="matrix(1,0,0,1,139.94307893558897,0.2775341434194729)"><svg viewBox="0 0 395.52 111.01365736779053" height="111.01365736779053" width="395.52"><g id="SvgjsG1387"><svg viewBox="0 0 395.52 111.01365736779053" height="111.01365736779053" width="395.52" id="SvgjsSvg1386"><g><svg viewBox="0 0 395.52 111.01365736779053" height="111.01365736779053" width="395.52"><g transform="matrix(1,0,0,1,0,0)"><svg width="395.52" viewBox="2.25 -37 294.40000000000003 78.6" height="111.01365736779053" data-palette-color="url(#8579fd18-444c-4ae8-8697-9af10528081f)"><svg></svg><svg></svg><g class="wordmark-text-0" data-fill-palette-color="primary" id="SvgjsG1385"><path d="M26 0h-21.5v-34.9h21.5v3.65h-17.3v11.75h16.7v3.65h-16.7v12.2h17.3zM37.65 0h-4.6l9.6-13.1-9.35-12.7h4.8l3.9 5.45 3.1 4.3h0.2l3-4.3 3.85-5.45h4.6l-9.45 12.65 9.7 13.15h-4.8l-4.35-6.05-2.95-4.1h-0.2l-2.85 4.1zM75.9 0.6v0c-1.867 0-3.527-0.327-4.98-0.98-1.447-0.647-2.67-1.553-3.67-2.72-1-1.167-1.76-2.583-2.28-4.25-0.513-1.667-0.77-3.517-0.77-5.55v0c0-2.033 0.267-3.883 0.8-5.55 0.533-1.667 1.3-3.093 2.3-4.28 1-1.18 2.217-2.087 3.65-2.72 1.433-0.633 3.067-0.95 4.9-0.95v0c2.5 0 4.533 0.55 6.1 1.65 1.567 1.1 2.717 2.533 3.45 4.3v0l-3.2 1.7c-0.467-1.333-1.24-2.367-2.32-3.1-1.087-0.733-2.43-1.1-4.03-1.1v0c-1.167 0-2.21 0.19-3.13 0.57-0.913 0.387-1.687 0.93-2.32 1.63-0.633 0.7-1.11 1.533-1.43 2.5-0.313 0.967-0.47 2.017-0.47 3.15v0 4.4c0 1.133 0.157 2.183 0.47 3.15 0.32 0.967 0.797 1.8 1.43 2.5 0.633 0.7 1.417 1.24 2.35 1.62 0.933 0.387 2 0.58 3.2 0.58v0c1.733 0 3.167-0.4 4.3-1.2 1.133-0.8 2.033-1.9 2.7-3.3v0l2.85 1.95c-0.767 1.733-1.96 3.167-3.58 4.3-1.613 1.133-3.72 1.7-6.32 1.7zM105.45 0.6v0c-1.867 0-3.543-0.317-5.03-0.95-1.48-0.633-2.743-1.543-3.79-2.73-1.053-1.18-1.863-2.597-2.43-4.25-0.567-1.647-0.85-3.487-0.85-5.52v0c0-2.067 0.29-3.933 0.87-5.6 0.587-1.667 1.397-3.093 2.43-4.28 1.033-1.18 2.277-2.087 3.73-2.72 1.447-0.633 3.053-0.95 4.82-0.95v0c1.733 0 3.307 0.317 4.72 0.95 1.42 0.633 2.63 1.507 3.63 2.62 1 1.12 1.767 2.447 2.3 3.98 0.533 1.533 0.8 3.217 0.8 5.05v0 1.9h-19.1v1.2c0 1.133 0.183 2.183 0.55 3.15 0.367 0.967 0.89 1.8 1.57 2.5 0.687 0.7 1.52 1.24 2.5 1.62 0.987 0.387 2.08 0.58 3.28 0.58v0c1.733 0 3.233-0.4 4.5-1.2 1.267-0.8 2.233-1.9 2.9-3.3v0l2.95 2c-0.767 1.733-2.043 3.16-3.83 4.28-1.78 1.113-3.953 1.67-6.52 1.67zM105.2-23.1v0c-1.1 0-2.117 0.2-3.05 0.6-0.933 0.4-1.743 0.95-2.43 1.65-0.68 0.7-1.21 1.523-1.59 2.47-0.387 0.953-0.58 1.997-0.58 3.13v0 0.35h14.8v-0.55c0-1.133-0.173-2.167-0.52-3.1-0.353-0.933-0.837-1.743-1.45-2.43-0.62-0.68-1.37-1.203-2.25-1.57-0.887-0.367-1.863-0.55-2.93-0.55zM124 0v-3.4h9v-30.2h-9v-3.4h13v33.6h9v3.4zM154 0v-3.4h9v-30.2h-9v-3.4h13v33.6h9v3.4zM195.45 0.6v0c-1.867 0-3.54-0.317-5.02-0.95-1.487-0.633-2.753-1.543-3.8-2.73-1.053-1.18-1.863-2.597-2.43-4.25-0.567-1.647-0.85-3.487-0.85-5.52v0c0-2.067 0.29-3.933 0.87-5.6 0.587-1.667 1.397-3.093 2.43-4.28 1.033-1.18 2.277-2.087 3.73-2.72 1.447-0.633 3.053-0.95 4.82-0.95v0c1.733 0 3.31 0.317 4.73 0.95 1.413 0.633 2.62 1.507 3.62 2.62 1 1.12 1.767 2.447 2.3 3.98 0.533 1.533 0.8 3.217 0.8 5.05v0 1.9h-19.1v1.2c0 1.133 0.183 2.183 0.55 3.15 0.367 0.967 0.893 1.8 1.58 2.5 0.68 0.7 1.513 1.24 2.5 1.62 0.98 0.387 2.07 0.58 3.27 0.58v0c1.733 0 3.233-0.4 4.5-1.2 1.267-0.8 2.233-1.9 2.9-3.3v0l2.95 2c-0.767 1.733-2.043 3.16-3.83 4.28-1.78 1.113-3.953 1.67-6.52 1.67zM195.2-23.1v0c-1.1 0-2.117 0.2-3.05 0.6-0.933 0.4-1.743 0.95-2.43 1.65-0.68 0.7-1.21 1.523-1.59 2.47-0.387 0.953-0.58 1.997-0.58 3.13v0 0.35h14.8v-0.55c0-1.133-0.177-2.167-0.53-3.1-0.347-0.933-0.827-1.743-1.44-2.43-0.62-0.68-1.37-1.203-2.25-1.57-0.887-0.367-1.863-0.55-2.93-0.55zM218.9 0h-4v-25.8h4v4.2h0.2c0.267-0.633 0.6-1.243 1-1.83 0.4-0.58 0.89-1.087 1.47-1.52 0.587-0.433 1.28-0.783 2.08-1.05 0.8-0.267 1.733-0.4 2.8-0.4v0c2.7 0 4.867 0.857 6.5 2.57 1.633 1.72 2.45 4.147 2.45 7.28v0 16.55h-4v-15.85c0-2.367-0.517-4.127-1.55-5.28-1.033-1.147-2.55-1.72-4.55-1.72v0c-0.8 0-1.583 0.1-2.35 0.3-0.767 0.2-1.45 0.5-2.05 0.9-0.6 0.4-1.083 0.917-1.45 1.55-0.367 0.633-0.55 1.367-0.55 2.2v0zM255.9 0.6v0c-1.867 0-3.523-0.327-4.97-0.98-1.453-0.647-2.68-1.553-3.68-2.72-1-1.167-1.76-2.583-2.28-4.25-0.513-1.667-0.77-3.517-0.77-5.55v0c0-2.033 0.267-3.883 0.8-5.55 0.533-1.667 1.3-3.093 2.3-4.28 1-1.18 2.217-2.087 3.65-2.72 1.433-0.633 3.067-0.95 4.9-0.95v0c2.5 0 4.533 0.55 6.1 1.65 1.567 1.1 2.717 2.533 3.45 4.3v0l-3.2 1.7c-0.467-1.333-1.24-2.367-2.32-3.1-1.087-0.733-2.43-1.1-4.03-1.1v0c-1.167 0-2.21 0.19-3.13 0.57-0.913 0.387-1.687 0.93-2.32 1.63-0.633 0.7-1.11 1.533-1.43 2.5-0.313 0.967-0.47 2.017-0.47 3.15v0 4.4c0 1.133 0.157 2.183 0.47 3.15 0.32 0.967 0.797 1.8 1.43 2.5 0.633 0.7 1.417 1.24 2.35 1.62 0.933 0.387 2 0.58 3.2 0.58v0c1.733 0 3.167-0.4 4.3-1.2 1.133-0.8 2.033-1.9 2.7-3.3v0l2.85 1.95c-0.767 1.733-1.957 3.167-3.57 4.3-1.62 1.133-3.73 1.7-6.33 1.7zM285.45 0.6v0c-1.867 0-3.54-0.317-5.02-0.95-1.487-0.633-2.753-1.543-3.8-2.73-1.053-1.18-1.863-2.597-2.43-4.25-0.567-1.647-0.85-3.487-0.85-5.52v0c0-2.067 0.293-3.933 0.88-5.6 0.58-1.667 1.387-3.093 2.42-4.28 1.033-1.18 2.277-2.087 3.73-2.72 1.447-0.633 3.053-0.95 4.82-0.95v0c1.733 0 3.31 0.317 4.73 0.95 1.413 0.633 2.62 1.507 3.62 2.62 1 1.12 1.767 2.447 2.3 3.98 0.533 1.533 0.8 3.217 0.8 5.05v0 1.9h-19.1v1.2c0 1.133 0.183 2.183 0.55 3.15 0.367 0.967 0.893 1.8 1.58 2.5 0.68 0.7 1.513 1.24 2.5 1.62 0.98 0.387 2.07 0.58 3.27 0.58v0c1.733 0 3.233-0.4 4.5-1.2 1.267-0.8 2.233-1.9 2.9-3.3v0l2.95 2c-0.767 1.733-2.04 3.16-3.82 4.28-1.787 1.113-3.963 1.67-6.53 1.67zM285.2-23.1v0c-1.1 0-2.117 0.2-3.05 0.6-0.933 0.4-1.74 0.95-2.42 1.65-0.687 0.7-1.22 1.523-1.6 2.47-0.387 0.953-0.58 1.997-0.58 3.13v0 0.35h14.8v-0.55c0-1.133-0.177-2.167-0.53-3.1-0.347-0.933-0.827-1.743-1.44-2.43-0.62-0.68-1.37-1.203-2.25-1.57-0.887-0.367-1.863-0.55-2.93-0.55z" fill="black" fill-rule="nonzero" stroke="none" stroke-width="1" stroke-linecap="butt" stroke-linejoin="miter" stroke-miterlimit="10" stroke-dasharray="" stroke-dashoffset="0" font-family="none" font-weight="none" font-size="none" text-anchor="none" style="mix-blend-mode: normal" opacity="1"></path><path transform="translate(0,41)" d="M14.9 0.6v0c-3.133 0-5.7-0.577-7.7-1.73-2-1.147-3.65-2.62-4.95-4.42v0l3.05-2.5c1.367 1.7 2.81 2.967 4.33 3.8 1.513 0.833 3.32 1.25 5.42 1.25v0c2.533 0 4.467-0.583 5.8-1.75 1.333-1.167 2-2.8 2-4.9v0c0-1.7-0.483-3.027-1.45-3.98-0.967-0.947-2.65-1.62-5.05-2.02v0l-3.9-0.65c-1.7-0.3-3.123-0.75-4.27-1.35-1.153-0.6-2.08-1.327-2.78-2.18-0.7-0.847-1.2-1.78-1.5-2.8-0.3-1.013-0.45-2.07-0.45-3.17v0c0-3.2 1.05-5.617 3.15-7.25 2.1-1.633 4.933-2.45 8.5-2.45v0c2.8 0 5.16 0.467 7.08 1.4 1.913 0.933 3.453 2.25 4.62 3.95v0l-2.95 2.55c-0.967-1.267-2.133-2.3-3.5-3.1-1.367-0.8-3.133-1.2-5.3-1.2v0c-2.367 0-4.183 0.5-5.45 1.5-1.267 1-1.9 2.5-1.9 4.5v0c0 1.567 0.477 2.84 1.43 3.82 0.947 0.987 2.653 1.697 5.12 2.13v0l3.75 0.65c1.7 0.3 3.133 0.75 4.3 1.35 1.167 0.6 2.11 1.317 2.83 2.15 0.713 0.833 1.22 1.767 1.52 2.8 0.3 1.033 0.45 2.117 0.45 3.25v0c0 3.233-1.057 5.767-3.17 7.6-2.12 1.833-5.13 2.75-9.03 2.75zM45 0.6v0c-1.8 0-3.423-0.317-4.87-0.95-1.453-0.633-2.69-1.543-3.71-2.73-1.013-1.18-1.787-2.597-2.32-4.25-0.533-1.647-0.8-3.503-0.8-5.57v0c0-2.033 0.267-3.883 0.8-5.55 0.533-1.667 1.307-3.093 2.32-4.28 1.02-1.18 2.257-2.087 3.71-2.72 1.447-0.633 3.07-0.95 4.87-0.95v0c1.8 0 3.427 0.317 4.88 0.95 1.447 0.633 2.68 1.54 3.7 2.72 1.013 1.187 1.787 2.613 2.32 4.28 0.533 1.667 0.8 3.517 0.8 5.55v0c0 2.067-0.267 3.923-0.8 5.57-0.533 1.653-1.307 3.07-2.32 4.25-1.02 1.187-2.253 2.097-3.7 2.73-1.453 0.633-3.08 0.95-4.88 0.95zM45-2.85v0c2.233 0 4.033-0.667 5.4-2 1.367-1.333 2.05-3.4 2.05-6.2v0-3.7c0-2.8-0.683-4.867-2.05-6.2-1.367-1.333-3.167-2-5.4-2v0c-2.233 0-4.033 0.667-5.4 2-1.367 1.333-2.05 3.4-2.05 6.2v0 3.7c0 2.8 0.683 4.867 2.05 6.2 1.367 1.333 3.167 2 5.4 2zM64 0v-3.4h9v-30.2h-9v-3.4h13v33.6h9v3.4zM111.1 0v-4.2h-0.2c-0.267 0.633-0.6 1.24-1 1.82-0.4 0.587-0.893 1.097-1.48 1.53-0.58 0.433-1.27 0.783-2.07 1.05-0.8 0.267-1.733 0.4-2.8 0.4v0c-2.7 0-4.867-0.86-6.5-2.58-1.633-1.713-2.45-4.137-2.45-7.27v0-16.55h4v15.85c0 2.367 0.517 4.127 1.55 5.28 1.033 1.147 2.55 1.72 4.55 1.72v0c0.8 0 1.583-0.1 2.35-0.3 0.767-0.2 1.45-0.5 2.05-0.9 0.6-0.4 1.083-0.91 1.45-1.53 0.367-0.613 0.55-1.353 0.55-2.22v0-17.9h4v25.8zM146.3 0h-10.05c-1.967 0-3.407-0.55-4.32-1.65-0.92-1.1-1.38-2.517-1.38-4.25v0-16.5h-8.6v-3.4h6.4c0.867 0 1.477-0.177 1.83-0.53 0.347-0.347 0.52-0.953 0.52-1.82v0-6.75h3.85v9.1h11.75v3.4h-11.75v19h11.75zM166.6-31.5v0c-1.167 0-1.983-0.243-2.45-0.73-0.467-0.48-0.7-1.087-0.7-1.82v0-0.8c0-0.733 0.233-1.343 0.7-1.83 0.467-0.48 1.283-0.72 2.45-0.72v0c1.167 0 1.983 0.24 2.45 0.72 0.467 0.487 0.7 1.097 0.7 1.83v0 0.8c0 0.733-0.233 1.34-0.7 1.82-0.467 0.487-1.283 0.73-2.45 0.73zM155.3 0v-3.4h9.3v-19h-9.3v-3.4h13.3v22.4h8.7v3.4zM195 0.6v0c-1.8 0-3.423-0.317-4.87-0.95-1.453-0.633-2.687-1.543-3.7-2.73-1.02-1.18-1.797-2.597-2.33-4.25-0.533-1.647-0.8-3.503-0.8-5.57v0c0-2.033 0.267-3.883 0.8-5.55 0.533-1.667 1.31-3.093 2.33-4.28 1.013-1.18 2.247-2.087 3.7-2.72 1.447-0.633 3.07-0.95 4.87-0.95v0c1.8 0 3.427 0.317 4.88 0.95 1.447 0.633 2.677 1.54 3.69 2.72 1.02 1.187 1.797 2.613 2.33 4.28 0.533 1.667 0.8 3.517 0.8 5.55v0c0 2.067-0.267 3.923-0.8 5.57-0.533 1.653-1.31 3.07-2.33 4.25-1.013 1.187-2.243 2.097-3.69 2.73-1.453 0.633-3.08 0.95-4.88 0.95zM195-2.85v0c2.233 0 4.033-0.667 5.4-2 1.367-1.333 2.05-3.4 2.05-6.2v0-3.7c0-2.8-0.683-4.867-2.05-6.2-1.367-1.333-3.167-2-5.4-2v0c-2.233 0-4.033 0.667-5.4 2-1.367 1.333-2.05 3.4-2.05 6.2v0 3.7c0 2.8 0.683 4.867 2.05 6.2 1.367 1.333 3.167 2 5.4 2zM218.9 0h-4v-25.8h4v4.2h0.2c0.267-0.633 0.6-1.243 1-1.83 0.4-0.58 0.89-1.087 1.47-1.52 0.587-0.433 1.28-0.783 2.08-1.05 0.8-0.267 1.733-0.4 2.8-0.4v0c2.7 0 4.867 0.857 6.5 2.57 1.633 1.72 2.45 4.147 2.45 7.28v0 16.55h-4v-15.85c0-2.367-0.517-4.127-1.55-5.28-1.033-1.147-2.55-1.72-4.55-1.72v0c-0.8 0-1.583 0.1-2.35 0.3-0.767 0.2-1.45 0.5-2.05 0.9-0.6 0.4-1.083 0.917-1.45 1.55-0.367 0.633-0.55 1.367-0.55 2.2v0zM255.3 0.6v0c-2.7 0-5.027-0.46-6.98-1.38-1.947-0.913-3.603-2.137-4.97-3.67v0l2.7-2.35c1.233 1.3 2.583 2.3 4.05 3 1.467 0.7 3.233 1.05 5.3 1.05v0c2 0 3.64-0.36 4.92-1.08 1.287-0.713 1.93-1.837 1.93-3.37v0c0-0.667-0.123-1.227-0.37-1.68-0.253-0.447-0.597-0.803-1.03-1.07-0.433-0.267-0.917-0.477-1.45-0.63-0.533-0.147-1.1-0.27-1.7-0.37v0l-4.05-0.6c-0.9-0.133-1.877-0.317-2.93-0.55-1.047-0.233-2.003-0.61-2.87-1.13-0.867-0.513-1.59-1.203-2.17-2.07-0.587-0.867-0.88-2-0.88-3.4v0c0-1.3 0.257-2.427 0.77-3.38 0.52-0.947 1.247-1.747 2.18-2.4 0.933-0.647 2.033-1.13 3.3-1.45 1.267-0.313 2.65-0.47 4.15-0.47v0c2.333 0 4.357 0.367 6.07 1.1 1.72 0.733 3.197 1.75 4.43 3.05v0l-2.6 2.45c-0.3-0.367-0.673-0.743-1.12-1.13-0.453-0.38-1.007-0.73-1.66-1.05-0.647-0.313-1.403-0.57-2.27-0.77-0.867-0.2-1.867-0.3-3-0.3v0c-2.033 0-3.59 0.35-4.67 1.05-1.087 0.7-1.63 1.717-1.63 3.05v0c0 0.667 0.127 1.223 0.38 1.67 0.247 0.453 0.587 0.813 1.02 1.08 0.433 0.267 0.927 0.473 1.48 0.62 0.547 0.153 1.103 0.28 1.67 0.38v0l4.05 0.6c0.933 0.133 1.917 0.317 2.95 0.55 1.033 0.233 1.983 0.607 2.85 1.12 0.867 0.52 1.59 1.213 2.17 2.08 0.587 0.867 0.88 2 0.88 3.4v0c0 2.567-0.99 4.55-2.97 5.95-1.987 1.4-4.63 2.1-7.93 2.1z" fill="black" fill-rule="nonzero" stroke="none" stroke-width="1" stroke-linecap="butt" stroke-linejoin="miter" stroke-miterlimit="10" stroke-dasharray="" stroke-dashoffset="0" font-family="none" font-weight="none" font-size="none" text-anchor="none" style="mix-blend-mode: normal" opacity="1"></path></g></svg></g></svg></g></svg></g></svg></g><g transform="matrix(1,0,0,1,0,0.2775341434194729)"><svg viewBox="0 0 111.01365736779053 111.01365736779053" height="111.01365736779053" width="111.01365736779053"><g><svg xmlns="http://www.w3.org/2000/svg" xmlns:xlink="http://www.w3.org/1999/xlink" version="1.1" x="0" y="0" viewBox="0 0 58 58" enable-background="new 0 0 58 58" xml:space="preserve" height="111.01365736779053" width="111.01365736779053" class="icon-icon-0" data-fill-palette-color="accent" id="SvgjsSvg1384"><g fill="black"><path fill="black" d="M57 26c0.55 0 1-0.45 1-1V1c0-0.55-0.45-1-1-1H33c-0.55 0-1 0.45-1 1v12h-6V1c0-0.55-0.45-1-1-1H1C0.45 0 0 0.45 0 1v24c0 0.55 0.45 1 1 1h12v6H1c-0.55 0-1 0.45-1 1v24c0 0.55 0.45 1 1 1h24c0.55 0 1-0.45 1-1V45h6v12c0 0.55 0.45 1 1 1h24c0.55 0 1-0.45 1-1V33c0-0.55-0.45-1-1-1H45v-6H57zM44 34h12v22H34V44c0-0.55-0.45-1-1-1h-8c-0.55 0-1 0.45-1 1v12H2V34h12c0.55 0 1-0.45 1-1v-8c0-0.55-0.45-1-1-1H2V2h22v12c0 0.55 0.45 1 1 1h8c0.55 0 1-0.45 1-1V2h22v22H44c-0.55 0-1 0.45-1 1v8C43 33.55 43.45 34 44 34z"></path><path fill="black" d="M53 22c0.55 0 1-0.45 1-1V5c0-0.55-0.45-1-1-1H37c-0.55 0-1 0.45-1 1v12H22V5c0-0.55-0.45-1-1-1H5C4.45 4 4 4.45 4 5v16c0 0.55 0.45 1 1 1h12v14H5c-0.55 0-1 0.45-1 1v16c0 0.55 0.45 1 1 1h16c0.55 0 1-0.45 1-1V41h14v12c0 0.55 0.45 1 1 1h16c0.55 0 1-0.45 1-1V37c0-0.55-0.45-1-1-1H41V22H53zM6 20V6h14v12c0 0.55 0.45 1 1 1h7v9h-9v-7c0-0.55-0.45-1-1-1H6zM21 39c-0.55 0-1 0.45-1 1v12H6V38h12c0.55 0 1-0.45 1-1v-7h9v9H21zM52 38v14H38V40c0-0.55-0.45-1-1-1h-7v-9h9v7c0 0.55 0.45 1 1 1H52zM40 20c-0.55 0-1 0.45-1 1v7h-9v-9h7c0.55 0 1-0.45 1-1V6h14v14H40z"></path></g></svg></g></svg></g></svg></g><defs><mask></mask></defs></svg><rect width="395.52" height="82.41028019828642" fill="black" stroke="none" visibility="hidden"></rect></g></mask></svg><rect width="395.52" height="82.41028019828642" fill="black" stroke="none" visibility="hidden"></rect></g></mask><linearGradient x1="0" x2="1" y1="0.578" y2="0.595" id="58053513-ad0f-4ad5-abcb-943bc4515967"><stop stop-color="#6ee2f5" offset="0"></stop><stop stop-color="#6454f0" offset="1"></stop></linearGradient><rect width="395.52" height="82.41028019828642" fill="#000000" mask="url(#31bc6099-a0b4-48b3-b397-960f017ad196)" data-fill-palette-color="accent"></rect></svg><rect width="395.52" height="82.41028019828642" fill="none" stroke="none" visibility="hidden"></rect></g></svg></g></svg>